<?xml version="1.0" encoding="UTF-8"?>
<svg xmlns="http://www.w3.org/2000/svg" xmlns:xlink="http://www.w3.org/1999/xlink" version="1.1" viewBox="0 0 32 32">
  <defs>
    <style>
      .cls-1 {
        fill: #1d293b;
        stroke: #1d293b;
        stroke-miterlimit: 10;
        stroke-width: .8px;
      }

      .cls-2 {
        fill: url(#linear-gradient);
        stroke-width: 0px;
      }
    </style>
    <linearGradient id="linear-gradient" x1="3" y1="17.9" x2="29.2" y2="17.3" gradientUnits="userSpaceOnUse">
      <stop offset="0" stop-color="#4abaeb"/>
      <stop offset=".4" stop-color="#7fc8ed"/>
      <stop offset=".7" stop-color="#add5ef"/>
      <stop offset=".9" stop-color="#cbddf1"/>
      <stop offset="1" stop-color="#d6e0f2"/>
    </linearGradient>
  </defs>
  <g id="Layer_2" data-name="Layer 2">
    <rect class="cls-1" width="32" height="32"/>
  </g>
  <g id="Layer_1" data-name="Layer 1">
    <g>
      <path class="cls-2" d="M2.3,9.6h5.2l2,7.8,2-7.8h5.2v12.9h-3.3v-9.8l-2.5,9.8h-3l-2.5-9.8v9.8h-3.3v-12.9Z"/>
      <path class="cls-2" d="M19.3,9.6h6.6c1.4,0,2.5.3,3.2,1,.7.7,1.1,1.7,1.1,2.9s-.4,2.3-1.2,3c-.8.7-2,1.1-3.6,1.1h-2.2v4.8h-4v-12.9ZM23.3,15.1h1c.8,0,1.3-.1,1.6-.4s.5-.6.5-1-.1-.7-.4-1-.8-.4-1.5-.4h-1.1v2.9Z"/>
    </g>
  </g>
</svg>